<svg xmlns="http://www.w3.org/2000/svg" viewBox="0 0 108.092 38.748">
  <defs>
    <style>
      .cls-1 {
        fill: #030e23;
      }
    </style>
  </defs>
  <g id="Group_6" data-name="Group 6" transform="translate(-317.991 -462.457)">
    <path id="Path_4" data-name="Path 4" class="cls-1" d="M317.991,463.635h9.659v29.032H342.7v8.423H317.991Z" transform="translate(0 -0.56)"/>
    <path id="Path_5" data-name="Path 5" class="cls-1" d="M372.221,463.635h9.827v21.957c0,4.436,2.359,7.637,7.581,7.637,5.166,0,7.525-3.2,7.525-7.637V463.635h9.828v22.237c0,9.322-5.335,15.892-17.352,15.892s-17.408-6.627-17.408-15.836Z" transform="translate(-25.762 -0.56)"/>
    <path id="Path_6" data-name="Path 6" class="cls-1" d="M482.95,494.8a19.719,19.719,0,0,1-7.132,4.885,21.9,21.9,0,0,1-8.143,1.517c-11.456,0-20.047-7.974-20.047-19.374s8.591-19.374,20.047-19.374,19.991,7.975,19.991,19.374A19.207,19.207,0,0,1,482.95,494.8Zm-13.084-2.359L466.1,487.9l6.683-5.391,3.875,4.661a11.829,11.829,0,0,0,1.179-5.335c0-6.121-3.987-10.838-10.164-10.838-6.233,0-10.22,4.716-10.22,10.838,0,6.065,3.987,10.838,10.22,10.838A9.044,9.044,0,0,0,469.865,492.444Z" transform="translate(-61.584 0)"/>
  </g>
</svg>
